<svg width="7" height="6" viewBox="0 0 7 6" fill="none" xmlns="http://www.w3.org/2000/svg">
<path d="M3.51961 0.261987C3.51126 0.236303 3.48733 0.218914 3.46032 0.218914C3.43332 0.218914 3.40938 0.236303 3.40104 0.261987L2.79924 2.11414H0.851771C0.824766 2.11414 0.800831 2.13153 0.792486 2.15721C0.784141 2.1829 0.793283 2.21103 0.815131 2.22691L2.39067 3.3716L1.78886 5.22375C1.78052 5.24943 1.78966 5.27757 1.81151 5.29344C1.83336 5.30932 1.86294 5.30932 1.88479 5.29344L3.46032 4.14875L5.03586 5.29344C5.05771 5.30932 5.08729 5.30932 5.10914 5.29344C5.13099 5.27757 5.14013 5.24943 5.13178 5.22375L4.52998 3.3716L6.10552 2.22691C6.12737 2.21103 6.13651 2.1829 6.12816 2.15721C6.11982 2.13153 6.09588 2.11414 6.06888 2.11414H4.12141L3.51961 0.261987Z" stroke="#F7A720" stroke-width="0.124673" stroke-linejoin="round"/>
</svg>
