<svg width="21" height="21" viewBox="0 0 21 21" fill="none" xmlns="http://www.w3.org/2000/svg">
<path d="M17.2242 13.4474C16.1803 13.4474 15.1705 13.2776 14.2285 12.9721C13.9315 12.8703 13.6005 12.9467 13.3714 13.1758L12.0391 14.8476C9.63746 13.702 7.3886 11.538 6.19204 9.0515L7.84686 7.64278C8.07599 7.40517 8.14388 7.0742 8.05053 6.77719C7.73654 5.83521 7.5753 4.82535 7.5753 3.78154C7.5753 3.32329 7.19342 2.94141 6.73516 2.94141H3.79892C3.34067 2.94141 2.78906 3.14508 2.78906 3.78154C2.78906 11.6653 9.34893 18.2166 17.2242 18.2166C17.8267 18.2166 18.0643 17.682 18.0643 17.2153V14.2875C18.0643 13.8293 17.6824 13.4474 17.2242 13.4474Z" fill="white"/>
</svg>
