<svg width="7" height="6" viewBox="0 0 7 6" fill="none" xmlns="http://www.w3.org/2000/svg">
<path d="M3.53646 0.261987C3.52811 0.236303 3.50418 0.218914 3.47717 0.218914C3.45016 0.218914 3.42623 0.236303 3.41789 0.261987L2.81608 2.11414H0.868617C0.841611 2.11414 0.817677 2.13153 0.809332 2.15721C0.800987 2.1829 0.810129 2.21103 0.831977 2.22691L2.40751 3.3716L1.80571 5.22375C1.79737 5.24943 1.80651 5.27757 1.82836 5.29344C1.8502 5.30932 1.87979 5.30932 1.90164 5.29344L3.47717 4.14875L5.0527 5.29344C5.07455 5.30932 5.10414 5.30932 5.12599 5.29344C5.14783 5.27757 5.15698 5.24943 5.14863 5.22375L4.54683 3.3716L6.12236 2.22691C6.14421 2.21103 6.15335 2.1829 6.14501 2.15721C6.13666 2.13153 6.11273 2.11414 6.08572 2.11414H4.13826L3.53646 0.261987Z" fill="#FFC757" stroke="#F7A720" stroke-width="0.124673" stroke-linejoin="round"/>
</svg>
