<svg width="25" height="25" viewBox="0 0 25 25" fill="none" xmlns="http://www.w3.org/2000/svg">
<g clip-path="url(#clip0_3847_260)">
<path d="M7.31449 0.832031C3.73542 0.832031 0.833008 3.73444 0.833008 7.31351V17.6839C0.833008 21.263 3.73542 24.1654 7.31449 24.1654H17.6849C21.2639 24.1654 24.1663 21.263 24.1663 17.6839V7.31351C24.1663 3.73444 21.2639 0.832031 17.6849 0.832031H7.31449ZM20.2775 3.42462C20.993 3.42462 21.5737 4.00536 21.5737 4.72092C21.5737 5.43648 20.993 6.01722 20.2775 6.01722C19.5619 6.01722 18.9812 5.43648 18.9812 4.72092C18.9812 4.00536 19.5619 3.42462 20.2775 3.42462ZM12.4997 6.01722C16.0787 6.01722 18.9812 8.91962 18.9812 12.4987C18.9812 16.0778 16.0787 18.9802 12.4997 18.9802C8.9206 18.9802 6.01819 16.0778 6.01819 12.4987C6.01819 8.91962 8.9206 6.01722 12.4997 6.01722ZM12.4997 8.60981C11.4683 8.60981 10.4791 9.01953 9.74981 9.74884C9.02051 10.4781 8.61079 11.4673 8.61079 12.4987C8.61079 13.5301 9.02051 14.5192 9.74981 15.2486C10.4791 15.9779 11.4683 16.3876 12.4997 16.3876C13.5311 16.3876 14.5202 15.9779 15.2495 15.2486C15.9788 14.5192 16.3886 13.5301 16.3886 12.4987C16.3886 11.4673 15.9788 10.4781 15.2495 9.74884C14.5202 9.01953 13.5311 8.60981 12.4997 8.60981Z" fill="#464646"/>
</g>
<defs>
<clipPath id="clip0_3847_260">
<rect width="25" height="25" fill="#464646"/>
</clipPath>
</defs>
</svg>
