<svg width="93" height="42" viewBox="0 0 93 42" fill="none" xmlns="http://www.w3.org/2000/svg">
<path d="M22.2386 14.2767C20.4708 11.7231 15.6092 5.02824 13.3994 2C12.8265 2.49107 11.3545 5.53063 11.3545 8.67346C11.3545 12.602 13.3994 14.2767 15.1182 16.4865C16.8369 18.6963 18.5336 21.2016 19.2922 24.3435C20.0508 27.4855 18.8012 32.4461 13.3994 32.4461C7.99765 32.4461 6.77003 27.5355 7.50663 24.3435C8.09591 21.79 10.8623 17.5504 12.1718 15.7499C11.8444 15.2588 10.8888 14.2767 10.2075 12.8035C9.6129 11.5179 9.38905 9.20231 9.4709 8.13833C8.73429 9.20231 6.81912 11.9195 5.05128 14.2767C2.84148 17.2231 -3.54239 27.5355 2.59594 34.6559C8.73427 41.7764 19.0467 41.7764 24.6939 34.6559C30.3412 27.5355 24.4484 17.4686 22.2386 14.2767Z" fill="#1AA2EC"/>
<path d="M24.6939 34.6543C30.3412 27.5339 24.4484 17.467 22.2386 14.2751C21.8703 13.7431 20.783 12.2107 20.783 12.2107C21.5987 24.3419 21.4124 32.4445 13.3994 32.4445C7.99765 32.4445 6.77003 27.5338 7.50663 24.3419C8.09591 21.7884 10.8623 17.5488 12.1718 15.7483C11.8444 15.2572 10.8888 14.2751 10.2075 12.8019C9.6129 11.5162 9.38905 9.2007 9.4709 8.13672C8.73429 9.2007 6.81912 11.9179 5.05128 14.2751C2.84148 17.2215 -3.54239 27.5339 2.59594 34.6543C8.73427 41.7748 19.0467 41.7748 24.6939 34.6543Z" fill="url(#paint0_linear_3847_312)"/>
<path d="M5.05128 14.2751C2.84148 17.2215 -3.54239 27.5339 2.59594 34.6543C3.46981 35.668 5.44583 37.2624 5.44583 37.2624C5.81332 33.677 5.97352 29.5927 7.50663 24.3419C8.56062 20.732 10.8623 17.5488 12.1718 15.7483C11.8444 15.2572 10.8888 14.2751 10.2075 12.8019C9.6129 11.5162 9.38905 9.2007 9.4709 8.13672C8.73429 9.2007 6.81912 11.9179 5.05128 14.2751Z" fill="#33F8FE"/>
<path d="M40.128 11V2.6H43.584C44.328 2.6 44.964 2.72 45.492 2.96C46.028 3.2 46.44 3.544 46.728 3.992C47.016 4.44 47.16 4.972 47.16 5.588C47.16 6.204 47.016 6.736 46.728 7.184C46.44 7.624 46.028 7.964 45.492 8.204C44.964 8.436 44.328 8.552 43.584 8.552H40.992L41.688 7.844V11H40.128ZM45.624 11L43.5 7.952H45.168L47.304 11H45.624ZM41.688 8.012L40.992 7.268H43.512C44.2 7.268 44.716 7.12 45.06 6.824C45.412 6.528 45.588 6.116 45.588 5.588C45.588 5.052 45.412 4.64 45.06 4.352C44.716 4.064 44.2 3.92 43.512 3.92H40.992L41.688 3.152V8.012ZM52.8413 11.12C52.1853 11.12 51.5813 11.012 51.0293 10.796C50.4773 10.58 49.9973 10.28 49.5893 9.896C49.1813 9.504 48.8653 9.048 48.6413 8.528C48.4173 8 48.3053 7.424 48.3053 6.8C48.3053 6.176 48.4173 5.604 48.6413 5.084C48.8653 4.556 49.1813 4.1 49.5893 3.716C49.9973 3.324 50.4773 3.02 51.0293 2.804C51.5813 2.588 52.1813 2.48 52.8293 2.48C53.4853 2.48 54.0853 2.588 54.6293 2.804C55.1813 3.02 55.6613 3.324 56.0693 3.716C56.4773 4.1 56.7933 4.556 57.0173 5.084C57.2413 5.604 57.3533 6.176 57.3533 6.8C57.3533 7.424 57.2413 8 57.0173 8.528C56.7933 9.056 56.4773 9.512 56.0693 9.896C55.6613 10.28 55.1813 10.58 54.6293 10.796C54.0853 11.012 53.4893 11.12 52.8413 11.12ZM52.8293 9.752C53.2533 9.752 53.6453 9.68 54.0053 9.536C54.3653 9.392 54.6773 9.188 54.9413 8.924C55.2053 8.652 55.4093 8.34 55.5533 7.988C55.7053 7.628 55.7813 7.232 55.7813 6.8C55.7813 6.368 55.7053 5.976 55.5533 5.624C55.4093 5.264 55.2053 4.952 54.9413 4.688C54.6773 4.416 54.3653 4.208 54.0053 4.064C53.6453 3.92 53.2533 3.848 52.8293 3.848C52.4053 3.848 52.0133 3.92 51.6533 4.064C51.3013 4.208 50.9893 4.416 50.7173 4.688C50.4533 4.952 50.2453 5.264 50.0933 5.624C49.9493 5.976 49.8773 6.368 49.8773 6.8C49.8773 7.224 49.9493 7.616 50.0933 7.976C50.2453 8.336 50.4533 8.652 50.7173 8.924C50.9813 9.188 51.2933 9.392 51.6533 9.536C52.0133 9.68 52.4053 9.752 52.8293 9.752ZM42.732 25.12C42.076 25.12 41.448 25.028 40.848 24.844C40.248 24.652 39.772 24.408 39.42 24.112L39.96 22.9C40.296 23.164 40.712 23.384 41.208 23.56C41.704 23.736 42.212 23.824 42.732 23.824C43.172 23.824 43.528 23.776 43.8 23.68C44.072 23.584 44.272 23.456 44.4 23.296C44.528 23.128 44.592 22.94 44.592 22.732C44.592 22.476 44.5 22.272 44.316 22.12C44.132 21.96 43.892 21.836 43.596 21.748C43.308 21.652 42.984 21.564 42.624 21.484C42.272 21.404 41.916 21.312 41.556 21.208C41.204 21.096 40.88 20.956 40.584 20.788C40.296 20.612 40.06 20.38 39.876 20.092C39.692 19.804 39.6 19.436 39.6 18.988C39.6 18.532 39.72 18.116 39.96 17.74C40.208 17.356 40.58 17.052 41.076 16.828C41.58 16.596 42.216 16.48 42.984 16.48C43.488 16.48 43.988 16.544 44.484 16.672C44.98 16.8 45.412 16.984 45.78 17.224L45.288 18.436C44.912 18.212 44.524 18.048 44.124 17.944C43.724 17.832 43.34 17.776 42.972 17.776C42.54 17.776 42.188 17.828 41.916 17.932C41.652 18.036 41.456 18.172 41.328 18.34C41.208 18.508 41.148 18.7 41.148 18.916C41.148 19.172 41.236 19.38 41.412 19.54C41.596 19.692 41.832 19.812 42.12 19.9C42.416 19.988 42.744 20.076 43.104 20.164C43.464 20.244 43.82 20.336 44.172 20.44C44.532 20.544 44.856 20.68 45.144 20.848C45.44 21.016 45.676 21.244 45.852 21.532C46.036 21.82 46.128 22.184 46.128 22.624C46.128 23.072 46.004 23.488 45.756 23.872C45.516 24.248 45.144 24.552 44.64 24.784C44.136 25.008 43.5 25.12 42.732 25.12ZM49.1149 20.092H53.2909V21.376H49.1149V20.092ZM49.2349 23.692H53.9749V25H47.6749V16.6H53.8069V17.908H49.2349V23.692ZM55.7139 25V16.6H59.1699C59.9139 16.6 60.5499 16.72 61.0779 16.96C61.6139 17.2 62.0259 17.544 62.3139 17.992C62.6019 18.44 62.7459 18.972 62.7459 19.588C62.7459 20.204 62.6019 20.736 62.3139 21.184C62.0259 21.624 61.6139 21.964 61.0779 22.204C60.5499 22.436 59.9139 22.552 59.1699 22.552H56.5779L57.2739 21.844V25H55.7139ZM61.2099 25L59.0859 21.952H60.7539L62.8899 25H61.2099ZM57.2739 22.012L56.5779 21.268H59.0979C59.7859 21.268 60.3019 21.12 60.6459 20.824C60.9979 20.528 61.1739 20.116 61.1739 19.588C61.1739 19.052 60.9979 18.64 60.6459 18.352C60.3019 18.064 59.7859 17.92 59.0979 17.92H56.5779L57.2739 17.152V22.012ZM66.9753 25L63.3033 16.6H64.9953L68.2713 24.196H67.2993L70.6113 16.6H72.1713L68.5113 25H66.9753ZM73.0577 25V16.6H74.6177V25H73.0577ZM80.7777 25.12C80.1377 25.12 79.5417 25.016 78.9897 24.808C78.4457 24.592 77.9697 24.292 77.5617 23.908C77.1617 23.516 76.8497 23.056 76.6257 22.528C76.4017 22 76.2897 21.424 76.2897 20.8C76.2897 20.176 76.4017 19.6 76.6257 19.072C76.8497 18.544 77.1657 18.088 77.5737 17.704C77.9817 17.312 78.4577 17.012 79.0017 16.804C79.5457 16.588 80.1417 16.48 80.7897 16.48C81.4777 16.48 82.1057 16.6 82.6737 16.84C83.2417 17.072 83.7217 17.42 84.1137 17.884L83.1057 18.832C82.8017 18.504 82.4617 18.26 82.0857 18.1C81.7097 17.932 81.3017 17.848 80.8617 17.848C80.4217 17.848 80.0177 17.92 79.6497 18.064C79.2897 18.208 78.9737 18.412 78.7017 18.676C78.4377 18.94 78.2297 19.252 78.0777 19.612C77.9337 19.972 77.8617 20.368 77.8617 20.8C77.8617 21.232 77.9337 21.628 78.0777 21.988C78.2297 22.348 78.4377 22.66 78.7017 22.924C78.9737 23.188 79.2897 23.392 79.6497 23.536C80.0177 23.68 80.4217 23.752 80.8617 23.752C81.3017 23.752 81.7097 23.672 82.0857 23.512C82.4617 23.344 82.8017 23.092 83.1057 22.756L84.1137 23.716C83.7217 24.172 83.2417 24.52 82.6737 24.76C82.1057 25 81.4737 25.12 80.7777 25.12ZM87.0485 20.092H91.2245V21.376H87.0485V20.092ZM87.1685 23.692H91.9085V25H85.6085V16.6H91.7405V17.908H87.1685V23.692ZM44.016 39.12C43.376 39.12 42.78 39.016 42.228 38.808C41.684 38.592 41.208 38.292 40.8 37.908C40.4 37.516 40.088 37.056 39.864 36.528C39.64 36 39.528 35.424 39.528 34.8C39.528 34.176 39.64 33.6 39.864 33.072C40.088 32.544 40.404 32.088 40.812 31.704C41.22 31.312 41.696 31.012 42.24 30.804C42.784 30.588 43.38 30.48 44.028 30.48C44.716 30.48 45.344 30.6 45.912 30.84C46.48 31.072 46.96 31.42 47.352 31.884L46.344 32.832C46.04 32.504 45.7 32.26 45.324 32.1C44.948 31.932 44.54 31.848 44.1 31.848C43.66 31.848 43.256 31.92 42.888 32.064C42.528 32.208 42.212 32.412 41.94 32.676C41.676 32.94 41.468 33.252 41.316 33.612C41.172 33.972 41.1 34.368 41.1 34.8C41.1 35.232 41.172 35.628 41.316 35.988C41.468 36.348 41.676 36.66 41.94 36.924C42.212 37.188 42.528 37.392 42.888 37.536C43.256 37.68 43.66 37.752 44.1 37.752C44.54 37.752 44.948 37.672 45.324 37.512C45.7 37.344 46.04 37.092 46.344 36.756L47.352 37.716C46.96 38.172 46.48 38.52 45.912 38.76C45.344 39 44.712 39.12 44.016 39.12ZM50.2868 34.092H54.4628V35.376H50.2868V34.092ZM50.4068 37.692H55.1468V39H48.8468V30.6H54.9788V31.908H50.4068V37.692ZM56.8858 39V30.6H58.1698L63.4378 37.068H62.8018V30.6H64.3498V39H63.0658L57.7978 32.532H58.4338V39H56.8858ZM68.3047 39V31.92H65.5207V30.6H72.6487V31.92H69.8647V39H68.3047ZM75.2594 34.092H79.4354V35.376H75.2594V34.092ZM75.3794 37.692H80.1194V39H73.8194V30.6H79.9514V31.908H75.3794V37.692ZM81.8585 39V30.6H85.3145C86.0585 30.6 86.6945 30.72 87.2225 30.96C87.7585 31.2 88.1705 31.544 88.4585 31.992C88.7465 32.44 88.8905 32.972 88.8905 33.588C88.8905 34.204 88.7465 34.736 88.4585 35.184C88.1705 35.624 87.7585 35.964 87.2225 36.204C86.6945 36.436 86.0585 36.552 85.3145 36.552H82.7225L83.4185 35.844V39H81.8585ZM87.3545 39L85.2305 35.952H86.8985L89.0345 39H87.3545ZM83.4185 36.012L82.7225 35.268H85.2425C85.9305 35.268 86.4465 35.12 86.7905 34.824C87.1425 34.528 87.3185 34.116 87.3185 33.588C87.3185 33.052 87.1425 32.64 86.7905 32.352C86.4465 32.064 85.9305 31.92 85.2425 31.92H82.7225L83.4185 31.152V36.012Z" fill="black"/>
<defs>
<linearGradient id="paint0_linear_3847_312" x1="23.5151" y1="15.7031" x2="6.4259" y2="38.0075" gradientUnits="userSpaceOnUse">
<stop stop-color="#30F5FE"/>
<stop offset="1" stop-color="#16A3E8"/>
</linearGradient>
</defs>
</svg>
