<svg width="48" height="48" viewBox="0 0 48 48" fill="none" xmlns="http://www.w3.org/2000/svg">
<circle cx="24.2294" cy="24.048" r="23.5909" fill="#123BA3"/>
<path d="M39.1126 18.9917C38.8486 18.5549 38.4456 18.2911 37.9561 18.224C36.7036 18.0561 35.0865 19.2462 34.2804 19.918C33.1958 19.2318 32.0683 18.1712 30.811 16.655C30.7054 16.5494 28.2293 14.0156 24.1311 14.0156C20.033 14.0156 17.557 16.5445 17.432 16.6789C16.194 18.1712 15.0662 19.2319 13.9817 19.918C13.1755 19.2413 11.5583 18.0512 10.3059 18.2193C9.81639 18.2865 9.41344 18.5505 9.14943 18.987C8.58806 19.9083 8.66473 21.4824 9.34627 23.0947C10.4739 25.7628 12.8877 27.7685 15.8152 28.4931C17.0004 30.5278 18.8191 32.409 21.6071 33.3638C22.423 33.6422 23.277 33.7813 24.1312 33.7813C24.9853 33.7813 25.8442 33.6422 26.6552 33.3638C29.4433 32.4087 31.2619 30.5278 32.4522 28.4931C35.3795 27.7685 37.7884 25.7628 38.916 23.0947C39.5974 21.487 39.6742 19.9131 39.1129 18.9917H39.1126ZM10.2005 22.7348C9.5671 21.2327 9.615 20.0139 9.94133 19.4718C10.0613 19.2749 10.21 19.1695 10.426 19.1406C11.2563 19.0255 12.715 20.038 13.598 20.8154C13.6557 21.8087 13.9292 24.5872 15.2152 27.351C12.9454 26.5544 11.1076 24.8796 10.2005 22.7346L10.2005 22.7348ZM26.358 32.4856C24.9231 32.9752 23.3444 32.9752 21.9095 32.4856C15.5803 30.3166 14.6681 22.8688 14.534 20.9114C14.582 20.825 14.6061 20.7292 14.5963 20.6331C15.7288 19.8892 16.8902 18.7903 18.1234 17.298C18.1474 17.2739 20.4459 14.9467 24.1313 14.9467C27.8216 14.9467 30.115 17.2741 30.1201 17.2741C31.3725 18.7905 32.5385 19.8894 33.6663 20.6284C33.6568 20.7292 33.6807 20.8253 33.7335 20.9163C33.5992 22.8884 32.6777 30.3216 26.358 32.486L26.358 32.4856ZM38.0623 22.7348C37.1555 24.8797 35.3223 26.5497 33.0525 27.3512C34.3433 24.5872 34.6168 21.8038 34.6696 20.8156C35.5478 20.0381 37.0066 19.0352 37.8319 19.1456C38.0478 19.1743 38.1967 19.2751 38.3166 19.4768C38.6478 20.0141 38.6957 21.2329 38.0624 22.7349L38.0623 22.7348Z" fill="white"/>
<path d="M29.266 21.0273H18.9965C18.7374 21.0273 18.531 21.2337 18.531 21.4928C18.531 21.752 18.7373 21.9583 18.9965 21.9583H29.266C29.5251 21.9583 29.7315 21.752 29.7315 21.4928C29.7315 21.2337 29.5251 21.0273 29.266 21.0273Z" fill="white"/>
<path d="M29.2657 23.7656H18.9962C18.7371 23.7656 18.5308 23.972 18.5308 24.2311C18.5308 24.4903 18.7371 24.6966 18.9962 24.6966H29.2657C29.5249 24.6966 29.7312 24.4903 29.7312 24.2311C29.7312 23.972 29.5249 23.7656 29.2657 23.7656Z" fill="white"/>
<path d="M29.266 26.5117H18.9965C18.7374 26.5117 18.531 26.7181 18.531 26.9772C18.531 27.2364 18.7373 27.4427 18.9965 27.4427H29.266C29.5251 27.4427 29.7315 27.2364 29.7315 26.9772C29.7315 26.7181 29.5251 26.5117 29.266 26.5117Z" fill="white"/>
</svg>
