<svg width="48" height="48" viewBox="0 0 48 48" fill="none" xmlns="http://www.w3.org/2000/svg">
<circle cx="23.9972" cy="24.048" r="23.5909" fill="#123BA3"/>
<path d="M26.5702 12.48C26.8372 12.4775 27.0641 12.2837 27.1078 12.0201C27.1312 11.9557 27.1429 11.8878 27.1418 11.8193C27.1304 11.1369 27.3904 10.4779 27.8649 9.98701C28.3393 9.49643 28.9891 9.21438 29.6719 9.20269L33.5693 9.13809V9.13837C33.8705 9.13336 34.1108 8.88501 34.1058 8.58347C34.1011 8.28221 33.8527 8.04193 33.5512 8.04695L29.6666 8.11099C28.7044 8.12658 27.7653 8.51081 27.1416 9.19239V8.80566C27.1419 8.50413 26.8718 8.27026 26.5703 8.27026H19.554C19.4131 8.26886 19.2775 8.32538 19.1795 8.42673C19.0812 8.5278 19.0286 8.66478 19.0342 8.80566V11.924C19.028 12.0671 19.0795 12.2066 19.1773 12.3113C19.2753 12.4157 19.4109 12.4767 19.554 12.48H20.5933V13.7274H19.9438C19.3894 13.7268 18.8579 13.9476 18.4673 14.341C18.0769 14.7344 17.86 15.2679 17.8648 15.8219V18.3269H17.605C16.6372 18.3266 15.7095 18.712 15.0265 19.3977C14.3438 20.0835 13.9623 21.0131 13.9668 21.9806V36.7926C13.9668 38.8131 15.5847 40.4669 17.605 40.4669H28.5188C30.5394 40.4669 32.2088 38.8131 32.2088 36.7926V21.9806C32.2088 19.9604 30.5394 18.3268 28.5188 18.3268H28.3108V15.8218C28.3108 14.6614 27.3408 13.7272 26.18 13.7272H25.5823V12.4799L26.5702 12.48ZM20.1255 9.36167H26.0504V11.3886H20.1255V9.36167ZM31.1178 36.8031C31.1178 37.4855 30.8469 38.1398 30.3644 38.6222C29.8819 39.1048 29.2276 39.3756 28.5452 39.3756H17.6314C16.9489 39.3756 16.2946 39.1047 15.8122 38.6222C15.3297 38.1397 15.0588 37.4855 15.0588 36.8031V21.9911C15.0588 21.3087 15.3297 20.6544 15.8122 20.1719C16.2947 19.6894 16.949 19.4185 17.6314 19.4185H28.5452C29.2276 19.4185 29.8819 19.6895 30.3644 20.1719C30.8469 20.6544 31.1178 21.3087 31.1178 21.9911V36.8031ZM27.2198 15.8222V18.3272H18.956V15.8222C18.951 15.5574 19.0526 15.3015 19.2386 15.1127C19.4246 14.924 19.6785 14.8182 19.9436 14.819H26.1803C26.7391 14.819 27.2196 15.2634 27.2196 15.8221L27.2198 15.8222ZM24.4913 13.7276H21.6848V12.4802H24.4913V13.7276Z" fill="white"/>
<path d="M19.3973 29.9416H22.5415V33.0496C22.5415 33.3511 22.7859 33.5953 23.0872 33.5953C23.3884 33.5953 23.6329 33.3511 23.6329 33.0496V29.9416H26.7254C27.0269 29.9416 27.2711 29.6971 27.2711 29.3959C27.2711 29.0946 27.0269 28.8502 26.7254 28.8502H23.6329V25.7215C23.6329 25.4202 23.3884 25.1758 23.0872 25.1758C22.7859 25.1758 22.5415 25.4202 22.5415 25.7215V28.8502H19.3973C19.096 28.8502 18.8516 29.0946 18.8516 29.3959C18.8516 29.6971 19.096 29.9416 19.3973 29.9416Z" fill="white"/>
<path d="M23.0624 35.3885C24.6544 35.3885 26.1813 34.7562 27.307 33.6305C28.4329 32.5045 29.0652 30.9777 29.0652 29.3856C29.0652 27.7936 28.4329 26.2667 27.307 25.1411C26.1813 24.0154 24.6544 23.3828 23.0624 23.3828C21.4704 23.3828 19.9435 24.0154 18.8178 25.1411C17.6921 26.2667 17.0596 27.7936 17.0596 29.3856C17.0612 30.9771 17.6944 32.5031 18.8197 33.6282C19.9451 34.7536 21.4709 35.3868 23.0623 35.3884L23.0624 35.3885ZM23.0624 24.4746C24.3648 24.4746 25.6142 24.9922 26.5352 25.9133C27.4565 26.8343 27.9738 28.0836 27.9738 29.3861C27.9738 30.6888 27.4565 31.9381 26.5352 32.8591C25.6142 33.7802 24.3649 34.2975 23.0624 34.2975C21.76 34.2975 20.5106 33.7802 19.5896 32.8591C18.6686 31.9381 18.151 30.6889 18.151 29.3861C18.1523 28.0841 18.6705 26.8357 19.5912 25.915C20.512 24.9942 21.7602 24.4763 23.0623 24.4747L23.0624 24.4746Z" fill="white"/>
</svg>
