<svg width="48" height="48" viewBox="0 0 48 48" fill="none" xmlns="http://www.w3.org/2000/svg">
<circle cx="24.1417" cy="24.048" r="23.5909" fill="#123BA3"/>
<path d="M36.4293 16.3013C36.5726 16.4507 36.6742 16.615 36.731 16.8002C36.7489 16.86 36.7609 16.9197 36.7728 16.9795C36.7758 16.9974 36.7847 17.0661 36.7758 16.9795C36.7788 17.0064 36.7818 17.0332 36.7818 17.0601C36.7847 17.1139 36.7847 17.1677 36.7847 17.2214C36.7847 17.2483 36.7818 17.2752 36.7788 17.3021C36.7698 17.4306 36.7997 17.2185 36.7728 17.3439C36.7519 17.4515 36.725 17.556 36.6832 17.6576C36.716 17.5799 36.6414 17.7383 36.6294 17.7562C36.6145 17.7801 36.6025 17.804 36.5876 17.8279C36.5786 17.8398 36.5129 17.9324 36.5368 17.9026C36.5667 17.8637 36.5099 17.9324 36.5039 17.9414C36.486 17.9623 36.4651 17.9832 36.4442 18.0041C36.4382 18.0101 36.4322 18.0161 36.4293 18.0221L27.1624 27.2889C26.6307 27.8206 25.9974 28.197 25.2774 28.3912C24.9846 28.4689 24.7845 28.5048 24.5216 28.5227C24.3692 28.5346 24.2169 28.5346 24.0645 28.5316C23.8106 28.5257 23.5596 28.5227 23.3057 28.5167C22.7052 28.5048 22.0869 28.454 21.4894 28.5346C20.6768 28.6482 19.9688 29.0604 19.3952 29.637C18.5856 30.4466 17.7731 31.2591 16.9635 32.0687L15.9239 33.1083C15.891 33.1412 15.8552 33.177 15.8223 33.2099C15.8163 33.2159 15.8103 33.2219 15.8044 33.2278C15.7924 33.2398 15.7835 33.2487 15.7715 33.2607C15.7506 33.2816 15.7297 33.2995 15.7058 33.3175C15.7685 33.2697 15.6699 33.3384 15.658 33.3443C15.6431 33.3533 15.4997 33.425 15.5773 33.3921C15.5206 33.416 15.4608 33.434 15.4011 33.4459C15.3891 33.4489 15.3055 33.4668 15.3592 33.4579C15.413 33.4489 15.3294 33.4609 15.3174 33.4609C15.2487 33.4638 15.18 33.4638 15.1143 33.4579C15.0426 33.4519 15.18 33.4728 15.1113 33.4549C15.0784 33.4459 15.0456 33.4399 15.0127 33.431C14.9828 33.422 14.8574 33.3712 14.9261 33.4041C14.8753 33.3802 14.8275 33.3503 14.7797 33.3204C14.711 33.2786 14.7498 33.2995 14.7677 33.3145C14.7349 33.2876 14.702 33.2577 14.6692 33.2278C14.6393 33.198 14.6094 33.1651 14.5825 33.1293C14.6244 33.186 14.5825 33.1263 14.5766 33.1173C14.5616 33.0934 14.5467 33.0695 14.5317 33.0456C14.5168 33.0217 14.5049 32.9948 14.4929 32.9709C14.5288 33.0426 14.4899 32.965 14.4839 32.944C14.463 32.8843 14.4511 32.8245 14.4361 32.7648C14.4541 32.8544 14.4332 32.6871 14.4332 32.6602C14.4332 32.6334 14.4332 32.6065 14.4361 32.5796C14.4361 32.5676 14.4481 32.481 14.4391 32.5378C14.4272 32.6035 14.4541 32.472 14.4541 32.475C14.46 32.4481 14.469 32.4212 14.478 32.3944C14.4869 32.3675 14.4959 32.3406 14.5049 32.3167C14.475 32.3884 14.5228 32.2898 14.5317 32.2719C14.5467 32.248 14.5616 32.2241 14.5766 32.2002C14.5825 32.1912 14.6244 32.1315 14.5825 32.1882C14.6094 32.1524 14.6393 32.1225 14.6692 32.0896C14.6751 32.0837 14.6781 32.0807 14.6841 32.0747C14.717 32.0418 14.7498 32.009 14.7827 31.9761C15.1262 31.6326 15.4698 31.289 15.8103 30.9485C16.6259 30.1329 17.4385 29.3204 18.254 28.5048C18.8126 27.9462 19.2278 27.2621 19.3533 26.4734C19.4489 25.864 19.3951 25.2306 19.3832 24.6152C19.3772 24.3553 19.3742 24.0954 19.3683 23.8355C19.3593 23.3904 19.3922 23.0678 19.4967 22.6585C19.6879 21.9177 20.0673 21.2724 20.608 20.7317C21.0532 20.2865 21.4983 19.8414 21.9404 19.3993C22.8157 18.524 23.691 17.6487 24.5663 16.7734C25.5163 15.8234 26.4693 14.8704 27.4193 13.9204C28.1034 13.2363 28.7845 12.5552 29.4687 11.871C29.6001 11.7396 29.7315 11.6052 29.866 11.4737C29.9048 11.4349 29.9466 11.3961 29.9914 11.3602C30.0452 11.3124 29.9436 11.3931 30.0034 11.3512C30.0273 11.3363 30.0482 11.3184 30.0721 11.3034C30.1259 11.2706 30.1797 11.2407 30.2364 11.2108C30.2484 11.2049 30.3141 11.175 30.2424 11.2049C30.2663 11.1959 30.2932 11.184 30.3201 11.175C30.3858 11.1541 30.4515 11.1362 30.5172 11.1212C30.5441 11.1152 30.571 11.1123 30.5979 11.1063C30.58 11.1093 30.5113 11.1123 30.6009 11.1063C30.6546 11.1033 30.7084 11.1003 30.7622 11.1003C30.816 11.1003 30.8697 11.1033 30.9235 11.1093C30.8339 11.1003 30.9205 11.1093 30.9444 11.1152C30.9773 11.1212 31.0101 11.1302 31.043 11.1391C31.1028 11.1541 31.1595 11.175 31.2193 11.1959C31.285 11.2198 31.1625 11.169 31.2252 11.1989C31.2491 11.2108 31.276 11.2228 31.2999 11.2347C31.3567 11.2646 31.4075 11.2975 31.4612 11.3333C31.4732 11.3393 31.527 11.3841 31.4732 11.3393C31.5001 11.3632 31.527 11.3871 31.5539 11.411C32.1603 11.9726 32.7279 12.5821 33.3104 13.1676C34.1917 14.0489 35.0759 14.9331 35.9572 15.8144C36.1096 15.9817 36.2679 16.14 36.4292 16.3013C36.5995 16.4716 36.8923 16.4716 37.0626 16.3013C37.2329 16.131 37.2329 15.8383 37.0626 15.668C36.4681 15.0735 35.8736 14.479 35.2821 13.8875L32.6293 11.2347C32.3814 10.9868 32.1364 10.7119 31.8347 10.5237C31.0042 10.0099 29.9168 10.1652 29.2296 10.8404C28.8054 11.2556 28.3902 11.6798 27.972 12.098C27.0967 12.9733 26.2244 13.8456 25.349 14.721C24.3752 15.6949 23.4013 16.6687 22.4304 17.6397C21.7373 18.3328 21.0442 19.0258 20.3482 19.7219L19.9538 20.1162C19.2607 20.8122 18.7619 21.7145 18.5707 22.6794C18.4363 23.3605 18.4721 24.0446 18.487 24.7347C18.493 25.0394 18.499 25.3441 18.505 25.6459C18.505 25.6996 18.5079 25.7504 18.5079 25.8042C18.5109 26.1179 18.493 26.2881 18.4124 26.5839C18.2869 27.038 18.0539 27.4353 17.7193 27.7699C17.6476 27.8445 17.5729 27.9162 17.5012 27.9879L16.3271 29.162C15.5683 29.9208 14.8066 30.6736 14.0508 31.4384C13.2979 32.2001 13.4025 33.4369 14.2718 34.0583C14.7647 34.4108 15.419 34.4407 15.9627 34.1957C16.1778 34.0971 16.354 33.9478 16.5183 33.7835C17.3399 32.9619 18.1614 32.1404 18.9829 31.3189C19.3294 30.9723 19.673 30.6288 20.0196 30.2822C20.0494 30.2524 20.0823 30.2195 20.1122 30.1896C20.1151 30.1866 20.1211 30.1807 20.1241 30.1777C20.1689 30.1329 20.2167 30.0881 20.2645 30.0462C20.2884 30.0253 20.3123 30.0044 20.3362 29.9835C20.396 29.9327 20.3273 29.9865 20.396 29.9357C20.4975 29.861 20.6051 29.7923 20.7156 29.7296C20.856 29.6519 20.9456 29.6071 21.0592 29.5683C21.1846 29.5205 21.3131 29.4846 21.4445 29.4547C21.5073 29.4398 21.57 29.4279 21.6298 29.4189C21.7224 29.404 21.6746 29.4129 21.6537 29.4159C21.7015 29.4099 21.7493 29.4069 21.7971 29.401C22.3587 29.3591 22.9382 29.4099 23.5029 29.4219C23.703 29.4249 23.9032 29.4308 24.1063 29.4338C24.665 29.4428 25.2356 29.3621 25.7673 29.1829C26.538 28.926 27.2281 28.4928 27.8047 27.9192C27.966 27.7579 28.1303 27.5936 28.2916 27.4323C29.0265 26.6974 29.7614 25.9625 30.4934 25.2306C31.4702 24.2537 32.4471 23.2768 33.421 22.3029C34.2694 21.4545 35.1208 20.6031 35.9692 19.7547C36.3367 19.3872 36.7131 19.0228 37.0745 18.6464C37.8751 17.8189 37.8602 16.4955 37.0596 15.6739C36.8893 15.5007 36.5965 15.5037 36.4262 15.6739C36.253 15.8412 36.259 16.125 36.4292 16.3013L36.4293 16.3013Z" fill="white"/>
<path d="M29.5095 21.0873C28.7178 20.2956 27.9262 19.504 27.1375 18.7153C27.024 18.6018 26.9134 18.4912 26.7999 18.3777C26.6296 18.2074 26.3369 18.2074 26.1666 18.3777L21.3211 23.2232C21.1508 23.3935 21.1508 23.6863 21.3211 23.8566C22.1127 24.6482 22.9044 25.4399 23.6931 26.2286C23.8066 26.3421 23.9171 26.4526 24.0306 26.5661C24.2009 26.7364 24.4937 26.7364 24.664 26.5661C25.2136 26.0165 25.7603 25.4698 26.31 24.9201C27.1763 24.0538 28.0427 23.1874 28.909 22.3211C29.1092 22.1209 29.3093 21.9208 29.5095 21.7206C29.6828 21.5503 29.6828 21.2606 29.5095 21.0873C29.3392 20.917 29.0464 20.917 28.8762 21.0873C28.3265 21.6369 27.7798 22.1836 27.2301 22.7333C26.3638 23.5996 25.4974 24.466 24.6311 25.3323C24.4309 25.5325 24.2308 25.7327 24.0306 25.9328H24.664C23.8723 25.1412 23.0807 24.3495 22.292 23.5608C22.1785 23.4473 22.0679 23.3368 21.9544 23.2232V23.8566L26.7999 19.011H26.1666C26.9582 19.8027 27.7499 20.5943 28.5386 21.383C28.6521 21.4966 28.7626 21.6071 28.8762 21.7206C29.0464 21.8909 29.3392 21.8909 29.5095 21.7206C29.6828 21.5503 29.6828 21.2606 29.5095 21.0873Z" fill="white"/>
<path d="M31.6666 17.5664C31.6397 17.5903 31.6128 17.6172 31.5859 17.6411C31.5321 17.6889 31.6337 17.6082 31.5769 17.6501C31.5262 17.6859 31.4724 17.7188 31.4156 17.7486C31.3917 17.7606 31.3648 17.7725 31.3409 17.7845C31.4156 17.7516 31.335 17.7845 31.3141 17.7905C31.2483 17.8114 31.1826 17.8263 31.1169 17.8412C31.0422 17.8562 31.2215 17.8412 31.096 17.8442C31.0691 17.8442 31.0422 17.8472 31.0153 17.8472C30.9615 17.8472 30.9078 17.8442 30.854 17.8412C30.9436 17.8502 30.857 17.8412 30.8331 17.8353C30.8002 17.8293 30.7674 17.8203 30.7345 17.8114C30.7076 17.8054 30.6837 17.7934 30.6568 17.7875C30.5672 17.7606 30.7016 17.8173 30.612 17.7695C30.5642 17.7427 30.5134 17.7188 30.4656 17.6889C30.4716 17.6919 30.3611 17.6142 30.4089 17.6501C30.4477 17.6799 30.379 17.6232 30.373 17.6172C30.3252 17.5724 30.2804 17.5276 30.2386 17.4768C30.2834 17.5306 30.2386 17.4768 30.2326 17.4648C30.2087 17.429 30.1878 17.3961 30.1669 17.3573C30.152 17.3334 30.14 17.3095 30.1281 17.2826C30.0683 17.1691 30.143 17.3274 30.1161 17.2557C30.0952 17.199 30.0773 17.1392 30.0653 17.0795C30.0594 17.0526 30.0534 17.0257 30.0504 16.9988C30.0653 17.0824 30.0534 17.0137 30.0534 16.9958C30.0534 16.9211 30.0504 16.8494 30.0564 16.7718C30.0594 16.7001 30.0414 16.8405 30.0564 16.7688C30.0623 16.7359 30.0683 16.703 30.0773 16.6702C30.0892 16.6164 30.1072 16.5656 30.1251 16.5148C30.0982 16.5865 30.1221 16.5238 30.1281 16.5089C30.143 16.479 30.1609 16.4461 30.1759 16.4163C30.1938 16.3864 30.2117 16.3565 30.2326 16.3266C30.2804 16.2519 30.1998 16.3535 30.2685 16.2818C30.3103 16.24 30.3491 16.1982 30.391 16.1593C30.4507 16.1026 30.4178 16.1354 30.3999 16.1474C30.4268 16.1265 30.4567 16.1056 30.4866 16.0876C30.5403 16.0548 30.5941 16.0249 30.6509 15.998C30.6329 16.007 30.5792 16.0219 30.6598 15.998C30.6987 15.9861 30.7375 15.9741 30.7763 15.9622C30.8002 15.9562 30.9526 15.9353 30.857 15.9442C30.9257 15.9383 30.9914 15.9353 31.0601 15.9383C31.087 15.9383 31.1139 15.9413 31.1408 15.9442C31.0572 15.9383 31.1229 15.9413 31.1438 15.9472C31.2095 15.9622 31.2752 15.9801 31.341 16.001C31.4634 16.0369 31.2991 15.9771 31.3678 16.01C31.3977 16.0249 31.4306 16.0398 31.4604 16.0578C31.5082 16.0847 31.556 16.1145 31.6009 16.1474C31.5441 16.1056 31.6009 16.1504 31.6098 16.1593C31.6367 16.1862 31.6636 16.2071 31.6875 16.234C31.7084 16.2549 31.7263 16.2758 31.7472 16.2968C31.7681 16.3207 31.7652 16.3177 31.7442 16.2908C31.7562 16.3087 31.7681 16.3236 31.7801 16.3416C31.8219 16.4043 31.8608 16.473 31.8906 16.5417C31.8817 16.5208 31.8697 16.47 31.8906 16.5507C31.9026 16.5895 31.9145 16.6284 31.9265 16.6672C31.9325 16.6941 31.9384 16.721 31.9444 16.7478C31.9713 16.8703 31.9444 16.6642 31.9504 16.7897C31.9534 16.8584 31.9534 16.9241 31.9504 16.9928C31.9474 17.0795 31.9504 17.0137 31.9534 16.9958C31.9474 17.0346 31.9384 17.0765 31.9295 17.1153C31.9235 17.1422 31.9145 17.1691 31.9086 17.193C31.9026 17.2139 31.8637 17.3095 31.8966 17.2408C31.813 17.4081 31.7562 17.4768 31.6666 17.5664C31.4993 17.7397 31.4933 18.0265 31.6666 18.1997C31.8369 18.37 32.1326 18.373 32.2999 18.1997C32.8496 17.6321 32.984 16.8076 32.6584 16.0936C32.3477 15.4185 31.5919 14.9853 30.851 15.054C30.0743 15.1257 29.3962 15.6664 29.202 16.4342C29.0108 17.202 29.3274 17.9906 29.9727 18.4358C30.6927 18.9317 31.6845 18.7972 32.2969 18.1998C32.4702 18.0325 32.4672 17.7367 32.2969 17.5664C32.1266 17.3932 31.8428 17.3991 31.6665 17.5664L31.6666 17.5664Z" fill="white"/>
<path d="M20.1224 29.5399C19.5309 28.9484 18.9424 28.3598 18.3509 27.7683C18.1806 27.5981 17.8878 27.5981 17.7176 27.7683C17.5473 27.9386 17.5473 28.2314 17.7176 28.4017C18.309 28.9932 18.8976 29.5817 19.4891 30.1732C19.6594 30.3435 19.9521 30.3435 20.1224 30.1732C20.2927 30.0029 20.2927 29.7131 20.1224 29.5399Z" fill="white"/>
<path d="M10.4041 38.02C10.3991 38.0229 10.3937 38.0248 10.3883 38.0258C10.3833 38.0269 10.3777 38.0275 10.3717 38.0275C10.3539 38.0275 10.3398 38.0229 10.3294 38.0134C10.3194 38.0034 10.3145 37.99 10.3145 37.9727C10.3145 37.9561 10.3194 37.9429 10.3294 37.9329C10.3398 37.9229 10.3539 37.918 10.3717 37.918C10.3777 37.918 10.3833 37.9188 10.3883 37.9205C10.3937 37.9217 10.3991 37.9236 10.4041 37.9263V37.9478C10.3991 37.9445 10.3941 37.942 10.3891 37.9404C10.3842 37.9387 10.3788 37.9379 10.3734 37.9379C10.3638 37.9379 10.3564 37.9412 10.351 37.9478C10.3454 37.9541 10.3427 37.9624 10.3427 37.9727C10.3427 37.9839 10.3454 37.9927 10.351 37.9993C10.3564 38.0055 10.3638 38.0084 10.3734 38.0084C10.3788 38.0084 10.3842 38.0076 10.3891 38.0059C10.3941 38.0043 10.3991 38.0018 10.4041 37.9985V38.02Z" fill="white"/>
<path d="M10.486 37.9675C10.4838 37.9665 10.4816 37.9659 10.4797 37.9659C10.4775 37.9655 10.4753 37.9651 10.4733 37.9651C10.467 37.9651 10.4618 37.9673 10.4582 37.9715C10.4551 37.9753 10.4535 37.9808 10.4535 37.9881V38.023H10.4297V37.9469H10.4535V37.9596C10.4567 37.9548 10.46 37.9515 10.4638 37.9493C10.468 37.9467 10.4729 37.9453 10.4789 37.9453H10.4812C10.4822 37.9453 10.4838 37.9457 10.486 37.9461L10.486 37.9675Z" fill="white"/>
<path d="M10.5809 37.985V37.9921H10.5246C10.525 37.9975 10.527 38.0016 10.5301 38.0048C10.5337 38.0076 10.5389 38.0088 10.5452 38.0088C10.5504 38.0088 10.5557 38.008 10.5611 38.0064C10.5662 38.0048 10.5718 38.0028 10.5777 38V38.0183C10.5718 38.0205 10.566 38.022 10.5603 38.023C10.5543 38.024 10.5486 38.0246 10.5428 38.0246C10.5289 38.0246 10.5184 38.0213 10.5111 38.0143C10.5036 38.0076 10.5 37.9977 10.5 37.985C10.5 37.9729 10.5036 37.9634 10.5111 37.9564C10.5184 37.9491 10.5288 37.9453 10.542 37.9453C10.5535 37.9453 10.5629 37.9491 10.5698 37.9564C10.5771 37.9634 10.5809 37.9729 10.5809 37.985L10.5809 37.985ZM10.5563 37.977C10.5563 37.9723 10.5549 37.9687 10.5523 37.9659C10.5496 37.9628 10.546 37.9612 10.5412 37.9612C10.5369 37.9612 10.5333 37.9626 10.5301 37.9651C10.527 37.9679 10.525 37.9719 10.5246 37.977L10.5563 37.977Z" fill="white"/>
<path d="M10.6422 37.9889C10.6368 37.9889 10.6329 37.9897 10.6303 37.9913C10.6275 37.9929 10.6263 37.9957 10.6263 37.9992C10.6263 38.0024 10.6273 38.0048 10.6295 38.0064C10.6315 38.008 10.6345 38.0088 10.6382 38.0088C10.643 38.0088 10.6466 38.0072 10.6493 38.004C10.6525 38.0008 10.6541 37.9967 10.6541 37.9913V37.9889L10.6422 37.9889ZM10.6787 37.9794V38.023H10.6541V38.0119C10.6509 38.0167 10.6472 38.0203 10.643 38.0222C10.6392 38.0238 10.6345 38.0246 10.6287 38.0246C10.6208 38.0246 10.6144 38.0226 10.6097 38.0183C10.6049 38.0135 10.6025 38.0076 10.6025 38C10.6025 37.9911 10.6053 37.9848 10.6113 37.981C10.6176 37.9768 10.6271 37.9747 10.6398 37.9747H10.6541V37.9723C10.6541 37.9687 10.6525 37.9659 10.6493 37.9643C10.6466 37.9624 10.6422 37.9612 10.6359 37.9612C10.6305 37.9612 10.6255 37.9618 10.6208 37.9628C10.6164 37.964 10.6125 37.9655 10.6089 37.9675V37.9493C10.614 37.9477 10.6194 37.9467 10.6247 37.9461C10.6299 37.9457 10.6351 37.9453 10.6398 37.9453C10.6535 37.9453 10.6632 37.9481 10.6692 37.9532C10.6755 37.9586 10.6787 37.9673 10.6787 37.9794V37.9794Z" fill="white"/>
<path d="M10.7322 37.9219V37.9441H10.7585V37.9622H10.7322V37.996C10.7322 37.9993 10.7326 38.0017 10.7338 38.0034C10.7355 38.0046 10.7384 38.005 10.7429 38.005H10.7561V38.0231H10.7347C10.7248 38.0231 10.7176 38.0213 10.7133 38.0174C10.7094 38.013 10.7075 38.0058 10.7075 37.996V37.9622H10.6943V37.9441H10.7075V37.9219L10.7322 37.9219Z" fill="white"/>
<path d="M10.8543 37.985V37.9921H10.798C10.7984 37.9975 10.8004 38.0016 10.8036 38.0048C10.8071 38.0076 10.8123 38.0088 10.8186 38.0088C10.8238 38.0088 10.8292 38.008 10.8345 38.0064C10.8397 38.0048 10.8452 38.0028 10.8512 38V38.0183C10.8452 38.0205 10.8395 38.022 10.8337 38.023C10.8278 38.024 10.822 38.0246 10.8163 38.0246C10.8024 38.0246 10.7919 38.0213 10.7845 38.0143C10.777 38.0076 10.7734 37.9977 10.7734 37.985C10.7734 37.9729 10.777 37.9634 10.7845 37.9564C10.7919 37.9491 10.8022 37.9453 10.8155 37.9453C10.827 37.9453 10.8363 37.9491 10.8432 37.9564C10.8506 37.9634 10.8543 37.9729 10.8543 37.985L10.8543 37.985ZM10.8298 37.977C10.8298 37.9723 10.8284 37.9687 10.8258 37.9659C10.823 37.9628 10.8194 37.9612 10.8147 37.9612C10.8103 37.9612 10.8067 37.9626 10.8036 37.9651C10.8004 37.9679 10.7984 37.9719 10.798 37.977L10.8298 37.977Z" fill="white"/>
<path d="M10.9367 37.9564V37.9141H10.9624V38.0244H10.9367V38.0128C10.9328 38.0178 10.9286 38.0215 10.9243 38.0236C10.9203 38.0253 10.9155 38.0261 10.9101 38.0261C10.9006 38.0261 10.8927 38.0223 10.8861 38.0145C10.8799 38.0068 10.877 37.9968 10.877 37.9846C10.877 37.9726 10.8799 37.9626 10.8861 37.9547C10.8927 37.947 10.9006 37.9431 10.9101 37.9431C10.9155 37.9431 10.9203 37.9443 10.9243 37.9464C10.9286 37.9487 10.9328 37.952 10.9367 37.9564V37.9564ZM10.9201 38.0078C10.9251 38.0078 10.9288 38.006 10.9317 38.002C10.935 37.9983 10.9367 37.9925 10.9367 37.9846C10.9367 37.9775 10.935 37.9719 10.9317 37.968C10.9288 37.9636 10.9251 37.9614 10.9201 37.9614C10.9145 37.9614 10.9104 37.9636 10.9077 37.968C10.9048 37.9719 10.9035 37.9775 10.9035 37.9846C10.9035 37.9925 10.9048 37.9983 10.9077 38.002C10.9104 38.006 10.9145 38.0078 10.9201 38.0078Z" fill="white"/>
<path d="M11.0824 38.0078C11.0873 38.0078 11.0911 38.006 11.094 38.002C11.0973 37.9983 11.099 37.9925 11.099 37.9846C11.099 37.9775 11.0973 37.9719 11.094 37.968C11.0911 37.9636 11.0873 37.9614 11.0824 37.9614C11.0768 37.9614 11.0724 37.9636 11.0691 37.968C11.0662 37.9719 11.0649 37.9775 11.0649 37.9846C11.0649 37.9925 11.0662 37.9983 11.0691 38.002C11.0724 38.006 11.0768 38.0078 11.0824 38.0078ZM11.0649 37.9564C11.0687 37.952 11.0726 37.9487 11.0765 37.9464C11.0809 37.9443 11.0859 37.9431 11.0915 37.9431C11.1014 37.9431 11.1093 37.947 11.1155 37.9547C11.1216 37.9626 11.1247 37.9726 11.1247 37.9846C11.1247 37.9968 11.1216 38.0068 11.1155 38.0145C11.1093 38.0223 11.1014 38.0261 11.0915 38.0261C11.0859 38.0261 11.0809 38.0253 11.0765 38.0236C11.0726 38.0215 11.0687 38.0178 11.0649 38.0128V38.0244H11.04V37.9141H11.0649V37.9564Z" fill="white"/>
<path d="M11.1345 37.9453H11.1602L11.181 37.9992L11.1992 37.9453H11.225L11.1918 38.0324C11.1885 38.0412 11.1843 38.0474 11.1793 38.0507C11.1748 38.0544 11.169 38.0565 11.1619 38.0565H11.1478V38.0399H11.1553C11.1596 38.0399 11.1627 38.0391 11.1644 38.0374C11.1665 38.0362 11.1681 38.0337 11.1694 38.0299L11.1702 38.0283L11.1345 37.9453Z" fill="white"/>
<path d="M11.3535 37.9493V37.9683C11.3487 37.9657 11.3436 37.964 11.3384 37.9628C11.3337 37.9618 11.3291 37.9612 11.3249 37.9612C11.3206 37.9612 11.3172 37.962 11.3146 37.9636C11.3124 37.9647 11.3115 37.9663 11.3115 37.9683C11.3115 37.9705 11.3122 37.9721 11.3138 37.9731C11.3154 37.9743 11.3186 37.9751 11.3233 37.9755L11.3273 37.9762C11.34 37.9778 11.3483 37.9806 11.3527 37.9842C11.3569 37.9873 11.359 37.9929 11.359 38.0008C11.359 38.0088 11.3559 38.0149 11.3495 38.0191C11.3436 38.0228 11.3349 38.0246 11.3234 38.0246C11.318 38.0246 11.3126 38.024 11.3075 38.023C11.3021 38.0226 11.2968 38.0215 11.2916 38.0199V38.0016C11.2964 38.0044 11.3011 38.0062 11.3059 38.0072C11.3111 38.0084 11.3164 38.0088 11.3218 38.0088C11.3265 38.0088 11.3299 38.0084 11.3321 38.0072C11.3347 38.0056 11.336 38.0036 11.336 38.0008C11.336 37.9988 11.3352 37.9973 11.3337 37.9961C11.3321 37.9951 11.3285 37.9943 11.3234 37.9937L11.3194 37.9929C11.3083 37.9919 11.3005 37.9895 11.2964 37.9858C11.292 37.9822 11.29 37.9766 11.29 37.9691C11.29 37.9612 11.2926 37.9554 11.298 37.9517C11.3037 37.9475 11.3122 37.9453 11.3234 37.9453C11.3281 37.9453 11.3329 37.9459 11.3376 37.9469C11.3428 37.9475 11.3481 37.9483 11.3535 37.9493L11.3535 37.9493Z" fill="white"/>
<path d="M11.4654 37.9763V38.0244H11.4397V37.9879C11.4397 37.9809 11.4393 37.9761 11.4388 37.9738C11.4388 37.9711 11.4384 37.9688 11.438 37.9672C11.4368 37.9655 11.4355 37.9645 11.4339 37.9638C11.4322 37.9628 11.4301 37.9622 11.4281 37.9622C11.4225 37.9622 11.4181 37.9645 11.4148 37.9688C11.4119 37.9728 11.4106 37.9784 11.4106 37.9854V38.0244H11.3857V37.9141H11.4106V37.9564C11.4144 37.952 11.4185 37.9487 11.4231 37.9464C11.4274 37.9444 11.4322 37.9431 11.4372 37.9431C11.4465 37.9431 11.4534 37.946 11.4579 37.9514C11.4629 37.957 11.4654 37.9653 11.4654 37.9763L11.4654 37.9763Z" fill="white"/>
<path d="M11.525 37.9889C11.5197 37.9889 11.5157 37.9897 11.5131 37.9913C11.5103 37.9929 11.5091 37.9957 11.5091 37.9992C11.5091 38.0024 11.5101 38.0048 11.5123 38.0064C11.5143 38.008 11.5173 38.0088 11.521 38.0088C11.5258 38.0088 11.5294 38.0072 11.5321 38.004C11.5353 38.0008 11.5369 37.9967 11.5369 37.9913V37.9889L11.525 37.9889ZM11.5615 37.9794V38.023H11.5369V38.0119C11.5337 38.0167 11.53 38.0203 11.5258 38.0222C11.522 38.0238 11.5173 38.0246 11.5115 38.0246C11.5036 38.0246 11.4972 38.0226 11.4925 38.0183C11.4877 38.0135 11.4854 38.0076 11.4854 38C11.4854 37.9911 11.4881 37.9848 11.4941 37.981C11.5004 37.9768 11.5099 37.9747 11.5226 37.9747H11.5369V37.9723C11.5369 37.9687 11.5353 37.9659 11.5321 37.9643C11.5294 37.9624 11.525 37.9612 11.5187 37.9612C11.5133 37.9612 11.5084 37.9618 11.5036 37.9628C11.4992 37.964 11.4953 37.9655 11.4917 37.9675V37.9493C11.4969 37.9477 11.5022 37.9467 11.5076 37.9461C11.5127 37.9457 11.5179 37.9453 11.5226 37.9453C11.5363 37.9453 11.546 37.9481 11.552 37.9532C11.5583 37.9586 11.5615 37.9673 11.5615 37.9794V37.9794Z" fill="white"/>
<path d="M11.6484 37.9493V37.9683C11.6437 37.9657 11.6385 37.964 11.6333 37.9628C11.6286 37.9618 11.624 37.9612 11.6199 37.9612C11.6155 37.9612 11.6121 37.962 11.6095 37.9636C11.6074 37.9647 11.6064 37.9663 11.6064 37.9683C11.6064 37.9705 11.6072 37.9721 11.6088 37.9731C11.6103 37.9743 11.6135 37.9751 11.6183 37.9755L11.6222 37.9762C11.6349 37.9778 11.6433 37.9806 11.6476 37.9842C11.6518 37.9873 11.654 37.9929 11.654 38.0008C11.654 38.0088 11.6508 38.0149 11.6444 38.0191C11.6385 38.0228 11.6298 38.0246 11.6183 38.0246C11.6129 38.0246 11.6076 38.024 11.6024 38.023C11.5971 38.0226 11.5917 38.0215 11.5865 38.0199V38.0016C11.5913 38.0044 11.5961 38.0062 11.6008 38.0072C11.606 38.0084 11.6113 38.0088 11.6167 38.0088C11.6214 38.0088 11.6248 38.0084 11.627 38.0072C11.6296 38.0056 11.631 38.0036 11.631 38.0008C11.631 37.9988 11.6302 37.9973 11.6286 37.9961C11.627 37.9951 11.6234 37.9943 11.6183 37.9937L11.6143 37.9929C11.6032 37.9919 11.5955 37.9895 11.5913 37.9858C11.5869 37.9822 11.585 37.9766 11.585 37.9691C11.585 37.9612 11.5875 37.9554 11.5929 37.9517C11.5986 37.9475 11.6072 37.9453 11.6183 37.9453C11.623 37.9453 11.6278 37.9459 11.6325 37.9469C11.6377 37.9475 11.6431 37.9483 11.6484 37.9493L11.6484 37.9493Z" fill="white"/>
<path d="M11.7642 37.9763V38.0244H11.7385V37.9879C11.7385 37.9809 11.7381 37.9761 11.7377 37.9738C11.7377 37.9711 11.7373 37.9688 11.7368 37.9672C11.7356 37.9655 11.7344 37.9645 11.7327 37.9638C11.731 37.9628 11.729 37.9622 11.7269 37.9622C11.7213 37.9622 11.7169 37.9645 11.7136 37.9688C11.7107 37.9728 11.7095 37.9784 11.7095 37.9854V38.0244H11.6846V37.9141H11.7095V37.9564C11.7132 37.952 11.7173 37.9487 11.7219 37.9464C11.7263 37.9444 11.731 37.9431 11.736 37.9431C11.7454 37.9431 11.7522 37.946 11.7568 37.9514C11.7617 37.957 11.7642 37.9653 11.7642 37.9763L11.7642 37.9763Z" fill="white"/>
<path d="M11.8231 37.9889C11.8177 37.9889 11.8138 37.9897 11.8112 37.9913C11.8084 37.9929 11.8072 37.9957 11.8072 37.9992C11.8072 38.0024 11.8082 38.0048 11.8104 38.0064C11.8124 38.008 11.8154 38.0088 11.8191 38.0088C11.8239 38.0088 11.8275 38.0072 11.8302 38.004C11.8334 38.0008 11.835 37.9967 11.835 37.9913V37.9889L11.8231 37.9889ZM11.8596 37.9794V38.023H11.835V38.0119C11.8318 38.0167 11.8281 38.0203 11.8239 38.0222C11.8201 38.0238 11.8154 38.0246 11.8096 38.0246C11.8017 38.0246 11.7953 38.0226 11.7906 38.0183C11.7858 38.0135 11.7834 38.0076 11.7834 38C11.7834 37.9911 11.7862 37.9848 11.7922 37.981C11.7985 37.9768 11.808 37.9747 11.8207 37.9747H11.835V37.9723C11.835 37.9687 11.8334 37.9659 11.8302 37.9643C11.8275 37.9624 11.8231 37.9612 11.8168 37.9612C11.8114 37.9612 11.8064 37.9618 11.8017 37.9628C11.7973 37.964 11.7934 37.9655 11.7898 37.9675V37.9493C11.7949 37.9477 11.8003 37.9467 11.8057 37.9461C11.8108 37.9457 11.816 37.9453 11.8207 37.9453C11.8344 37.9453 11.8441 37.9481 11.8501 37.9532C11.8564 37.9586 11.8596 37.9673 11.8596 37.9794V37.9794Z" fill="white"/>
<path d="M11.9616 37.977V38.023H11.9371V37.9873C11.9371 37.981 11.9367 37.9768 11.9363 37.9747C11.9363 37.9721 11.9359 37.9699 11.9355 37.9683C11.9343 37.9667 11.9331 37.9657 11.9315 37.9651C11.9299 37.9641 11.9279 37.9636 11.9259 37.9636C11.9206 37.9636 11.9164 37.9657 11.9133 37.9699C11.9105 37.9737 11.9093 37.979 11.9093 37.9858V38.023H11.8855V37.9469H11.9093V37.958C11.9129 37.9538 11.9168 37.9507 11.9212 37.9485C11.9254 37.9465 11.9299 37.9453 11.9347 37.9453C11.9436 37.9453 11.9501 37.9481 11.9545 37.9532C11.9593 37.9586 11.9616 37.9665 11.9616 37.977L11.9616 37.977Z" fill="white"/>
<path d="M11.9941 37.9141H12.019V37.9738L12.0481 37.9448H12.0779L12.0389 37.9813L12.0813 38.0244H12.0506L12.019 37.9912V38.0244H11.9941L11.9941 37.9141Z" fill="white"/>
<path d="M12.2041 37.9493V37.9683C12.1993 37.9657 12.1942 37.964 12.189 37.9628C12.1842 37.9618 12.1797 37.9612 12.1755 37.9612C12.1712 37.9612 12.1678 37.962 12.1652 37.9636C12.163 37.9647 12.162 37.9663 12.162 37.9683C12.162 37.9705 12.1628 37.9721 12.1644 37.9731C12.166 37.9743 12.1692 37.9751 12.1739 37.9755L12.1779 37.9762C12.1906 37.9778 12.1989 37.9806 12.2033 37.9842C12.2074 37.9873 12.2096 37.9929 12.2096 38.0008C12.2096 38.0088 12.2065 38.0149 12.2001 38.0191C12.1942 38.0228 12.1854 38.0246 12.1739 38.0246C12.1686 38.0246 12.1632 38.024 12.1581 38.023C12.1527 38.0226 12.1474 38.0215 12.1422 38.0199V38.0016C12.147 38.0044 12.1517 38.0062 12.1565 38.0072C12.1616 38.0084 12.167 38.0088 12.1723 38.0088C12.1771 38.0088 12.1805 38.0084 12.1827 38.0072C12.1852 38.0056 12.1866 38.0036 12.1866 38.0008C12.1866 37.9988 12.1858 37.9973 12.1842 37.9961C12.1827 37.9951 12.1791 37.9943 12.1739 37.9937L12.17 37.9929C12.1589 37.9919 12.1511 37.9895 12.147 37.9858C12.1426 37.9822 12.1406 37.9766 12.1406 37.9691C12.1406 37.9612 12.1432 37.9554 12.1486 37.9517C12.1543 37.9475 12.1628 37.9453 12.1739 37.9453C12.1787 37.9453 12.1835 37.9459 12.1882 37.9469C12.1934 37.9475 12.1987 37.9483 12.2041 37.9493L12.2041 37.9493Z" fill="white"/>
<path d="M12.2373 37.9448H12.2622V38.0244H12.2373V37.9448ZM12.2373 37.9141H12.2622V37.9348H12.2373V37.9141Z" fill="white"/>
<path d="M12.3613 37.977V38.023H12.3367V37.9873C12.3367 37.981 12.3363 37.9768 12.3359 37.9747C12.3359 37.9721 12.3355 37.9699 12.3351 37.9683C12.3339 37.9667 12.3327 37.9657 12.3312 37.9651C12.3296 37.9641 12.3276 37.9636 12.3256 37.9636C12.3203 37.9636 12.3161 37.9657 12.3129 37.9699C12.3101 37.9737 12.309 37.979 12.309 37.9858V38.023H12.2852V37.9469H12.309V37.958C12.3125 37.9538 12.3165 37.9507 12.3208 37.9485C12.325 37.9465 12.3296 37.9453 12.3343 37.9453C12.3433 37.9453 12.3498 37.9481 12.3542 37.9532C12.3589 37.9586 12.3613 37.9665 12.3613 37.977L12.3613 37.977Z" fill="white"/>
<path d="M12.4462 38.0142C12.4422 38.0188 12.438 38.0222 12.4336 38.0243C12.4296 38.0266 12.4248 38.0276 12.4193 38.0276C12.4097 38.0276 12.4017 38.0238 12.395 38.0159C12.3887 38.0081 12.3857 37.9982 12.3857 37.9865C12.3857 37.9747 12.3887 37.965 12.395 37.9571C12.4017 37.9493 12.4097 37.9453 12.4193 37.9453C12.4248 37.9453 12.4296 37.9466 12.4336 37.9487C12.438 37.951 12.4422 37.9543 12.4462 37.9587V37.947H12.4722V38.0192C12.4722 38.032 12.468 38.0419 12.4596 38.0486C12.4512 38.0558 12.4395 38.0595 12.4244 38.0595C12.4193 38.0595 12.4143 38.0589 12.4093 38.0579C12.4046 38.0572 12.4002 38.0562 12.3958 38.0545V38.0343C12.4002 38.0371 12.4044 38.039 12.4084 38.0402C12.4128 38.0419 12.4172 38.0427 12.4219 38.0427C12.4303 38.0427 12.4363 38.0406 12.4403 38.0369C12.4441 38.0329 12.4462 38.0272 12.4462 38.0192L12.4462 38.0142ZM12.4294 37.9638C12.4237 37.9638 12.4195 37.9659 12.4168 37.9697C12.4139 37.9737 12.4126 37.9793 12.4126 37.9865C12.4126 37.9938 12.4139 37.9995 12.4168 38.0033C12.4195 38.0072 12.4237 38.0091 12.4294 38.0091C12.4345 38.0091 12.4382 38.0072 12.4412 38.0033C12.4445 37.9995 12.4462 37.9938 12.4462 37.9865C12.4462 37.9793 12.4445 37.9737 12.4412 37.9697C12.4382 37.9659 12.4345 37.9638 12.4294 37.9638Z" fill="white"/>
<path d="M12.5787 37.9763V38.0244H12.553V37.9879C12.553 37.9809 12.5525 37.9761 12.5521 37.9738C12.5521 37.9711 12.5517 37.9688 12.5513 37.9672C12.5501 37.9655 12.5488 37.9645 12.5472 37.9638C12.5455 37.9628 12.5434 37.9622 12.5413 37.9622C12.5357 37.9622 12.5314 37.9645 12.5281 37.9688C12.5252 37.9728 12.5239 37.9784 12.5239 37.9854V38.0244H12.499V37.9141H12.5239V37.9564C12.5277 37.952 12.5318 37.9487 12.5364 37.9464C12.5407 37.9444 12.5455 37.9431 12.5505 37.9431C12.5598 37.9431 12.5667 37.946 12.5712 37.9514C12.5762 37.957 12.5787 37.9653 12.5787 37.9763L12.5787 37.9763Z" fill="white"/>
<path d="M10.3738 38.0625V38.0791H10.3597C10.3557 38.0791 10.353 38.0799 10.3514 38.0816C10.3501 38.0828 10.3497 38.0849 10.3497 38.0882V38.0932H10.3713V38.1115H10.3497V38.1729H10.3248V38.1115H10.3115V38.0932H10.3248V38.0882C10.3248 38.0795 10.3269 38.0731 10.3314 38.0691C10.3364 38.0648 10.3439 38.0625 10.3538 38.0625L10.3738 38.0625Z" fill="white"/>
<path d="M10.443 38.116C10.4408 38.115 10.4387 38.1144 10.4367 38.1144C10.4345 38.114 10.4323 38.1136 10.4303 38.1136C10.424 38.1136 10.4188 38.1158 10.4153 38.1199C10.4121 38.1237 10.4105 38.1292 10.4105 38.1366V38.1715H10.3867V38.0953H10.4105V38.108C10.4137 38.1033 10.4171 38.0999 10.4208 38.0977C10.425 38.0951 10.4299 38.0938 10.4359 38.0938H10.4383C10.4393 38.0938 10.4408 38.0941 10.443 38.0945L10.443 38.116Z" fill="white"/>
<path d="M10.4973 38.1112C10.4919 38.1112 10.4878 38.1132 10.4846 38.1168C10.4818 38.1205 10.4806 38.1261 10.4806 38.1334C10.4806 38.1409 10.4818 38.1467 10.4846 38.1509C10.4878 38.1546 10.4919 38.1564 10.4973 38.1564C10.5025 38.1564 10.5064 38.1546 10.5092 38.1509C10.5124 38.1467 10.514 38.1409 10.514 38.1334C10.514 38.1261 10.5124 38.1205 10.5092 38.1168C10.5064 38.1132 10.5025 38.1112 10.4973 38.1112ZM10.4973 38.0938C10.5104 38.0938 10.5207 38.0975 10.5282 38.1049C10.5356 38.1118 10.5393 38.1213 10.5393 38.1334C10.5393 38.1461 10.5356 38.156 10.5282 38.1628C10.5207 38.1697 10.5104 38.1731 10.4973 38.1731C10.484 38.1731 10.4737 38.1697 10.4664 38.1628C10.4594 38.156 10.4561 38.1461 10.4561 38.1334C10.4561 38.1213 10.4594 38.1118 10.4664 38.1049C10.4737 38.0975 10.484 38.0938 10.4973 38.0938Z" fill="white"/>
<path d="M10.6425 38.1091C10.6459 38.104 10.6497 38.1004 10.6544 38.098C10.6589 38.0952 10.664 38.0938 10.6698 38.0938C10.6788 38.0938 10.686 38.0967 10.6911 38.1023C10.6963 38.108 10.6988 38.1166 10.6988 38.1279V38.1774H10.6724V38.1347V38.133V38.1296C10.6724 38.1241 10.6715 38.12 10.6698 38.1176C10.6681 38.1149 10.6651 38.1134 10.6613 38.1134C10.6566 38.1134 10.6529 38.1155 10.6502 38.1194C10.6472 38.1234 10.6459 38.1294 10.6459 38.1373V38.1774H10.6194V38.1347C10.6194 38.1258 10.6186 38.12 10.6169 38.1176C10.6156 38.1149 10.613 38.1134 10.6092 38.1134C10.6041 38.1134 10.6 38.1157 10.5973 38.1202C10.5943 38.1243 10.593 38.13 10.593 38.1373V38.1774H10.5674V38.0955H10.593V38.1074C10.5964 38.1029 10.6 38.0995 10.6041 38.0972C10.6086 38.095 10.613 38.0938 10.6177 38.0938C10.6233 38.0938 10.6282 38.0952 10.6323 38.098C10.6367 38.101 10.6401 38.1046 10.6425 38.1091L10.6425 38.1091Z" fill="white"/>
<path d="M10.7976 38.0703V38.0925H10.824V38.1106H10.7976V38.1444C10.7976 38.1477 10.798 38.1502 10.7993 38.1518C10.8009 38.153 10.8038 38.1535 10.8083 38.1535H10.8215V38.1716H10.8001C10.7902 38.1716 10.783 38.1697 10.7787 38.1658C10.7748 38.1615 10.7729 38.1543 10.7729 38.1444V38.1106H10.7598V38.0925H10.7729V38.0703L10.7976 38.0703Z" fill="white"/>
<path d="M10.9205 38.1286V38.1768H10.8948V38.1403C10.8948 38.1332 10.8943 38.1284 10.8939 38.1261C10.8939 38.1235 10.8935 38.1212 10.8931 38.1195C10.8919 38.1179 10.8906 38.1168 10.8889 38.1162C10.8873 38.1152 10.8852 38.1145 10.8831 38.1145C10.8775 38.1145 10.8732 38.1168 10.8699 38.1212C10.867 38.1251 10.8657 38.1307 10.8657 38.1378V38.1768H10.8408V38.0664H10.8657V38.1087C10.8694 38.1044 10.8736 38.1011 10.8782 38.0988C10.8825 38.0967 10.8873 38.0954 10.8923 38.0954C10.9016 38.0954 10.9084 38.0984 10.913 38.1037C10.918 38.1093 10.9205 38.1176 10.9205 38.1286L10.9205 38.1286Z" fill="white"/>
<path d="M11.0272 38.1334V38.1405H10.9709C10.9713 38.1459 10.9733 38.1501 10.9764 38.1532C10.98 38.156 10.9852 38.1572 10.9915 38.1572C10.9967 38.1572 11.002 38.1564 11.0074 38.1548C11.0125 38.1532 11.0181 38.1513 11.024 38.1485V38.1667C11.0181 38.1689 11.0123 38.1705 11.0066 38.1715C11.0006 38.1725 10.9949 38.1731 10.9891 38.1731C10.9752 38.1731 10.9647 38.1697 10.9574 38.1628C10.9499 38.156 10.9463 38.1461 10.9463 38.1334C10.9463 38.1213 10.9499 38.1118 10.9574 38.1049C10.9647 38.0975 10.975 38.0938 10.9883 38.0938C10.9998 38.0938 11.0091 38.0975 11.0161 38.1049C11.0234 38.1118 11.0272 38.1213 11.0272 38.1334L11.0272 38.1334ZM11.0026 38.1255C11.0026 38.1207 11.0012 38.1171 10.9986 38.1144C10.9959 38.1112 10.9923 38.1096 10.9875 38.1096C10.9832 38.1096 10.9796 38.111 10.9764 38.1136C10.9733 38.1164 10.9713 38.1203 10.9709 38.1255L11.0026 38.1255Z" fill="white"/>
<path d="M11.1035 38.0703H11.1342L11.1724 38.1433V38.0703H11.1981V38.1765H11.1682L11.1292 38.1035V38.1765H11.1035L11.1035 38.0703Z" fill="white"/>
<path d="M11.259 38.1112C11.2537 38.1112 11.2495 38.1132 11.2463 38.1168C11.2435 38.1205 11.2424 38.1261 11.2424 38.1334C11.2424 38.1409 11.2435 38.1467 11.2463 38.1509C11.2495 38.1546 11.2537 38.1564 11.259 38.1564C11.2642 38.1564 11.2681 38.1546 11.2709 38.1509C11.2741 38.1467 11.2757 38.1409 11.2757 38.1334C11.2757 38.1261 11.2741 38.1205 11.2709 38.1168C11.2681 38.1132 11.2642 38.1112 11.259 38.1112ZM11.259 38.0938C11.2721 38.0938 11.2824 38.0975 11.2899 38.1049C11.2973 38.1118 11.3011 38.1213 11.3011 38.1334C11.3011 38.1461 11.2973 38.156 11.2899 38.1628C11.2824 38.1697 11.2721 38.1731 11.259 38.1731C11.2457 38.1731 11.2354 38.1697 11.2281 38.1628C11.2211 38.156 11.2178 38.1461 11.2178 38.1334C11.2178 38.1213 11.2211 38.1118 11.2281 38.1049C11.2354 38.0975 11.2457 38.0938 11.259 38.0938Z" fill="white"/>
<path d="M11.3301 38.1405V38.0938H11.3539V38.1017V38.1175V38.1294V38.1429C11.3543 38.1457 11.3551 38.1475 11.3563 38.1485C11.3572 38.1501 11.3586 38.1515 11.3602 38.1524C11.3618 38.153 11.3636 38.1532 11.3658 38.1532C11.3705 38.1532 11.3741 38.1515 11.3769 38.1477C11.38 38.1441 11.3816 38.1388 11.3816 38.1318V38.0938H11.4062V38.1699H11.3816V38.1588C11.3779 38.1635 11.3739 38.1671 11.3697 38.1691C11.366 38.1707 11.3618 38.1715 11.357 38.1715C11.3479 38.1715 11.3412 38.1689 11.3364 38.1635C11.3321 38.1584 11.3301 38.1507 11.3301 38.1405V38.1405Z" fill="white"/>
<path d="M11.5117 38.1255V38.1715H11.4871V38.1358C11.4871 38.1294 11.4867 38.1253 11.4863 38.1231C11.4863 38.1205 11.4859 38.1183 11.4855 38.1168C11.4843 38.1152 11.4831 38.1142 11.4815 38.1136C11.48 38.1126 11.478 38.112 11.476 38.112C11.4706 38.112 11.4665 38.1142 11.4633 38.1183C11.4605 38.1221 11.4593 38.1275 11.4593 38.1342V38.1715H11.4355V38.0953H11.4593V38.1064C11.4629 38.1023 11.4669 38.0991 11.4712 38.0969C11.4754 38.0949 11.48 38.0938 11.4847 38.0938C11.4936 38.0938 11.5002 38.0965 11.5045 38.1017C11.5093 38.107 11.5117 38.115 11.5117 38.1255L11.5117 38.1255Z" fill="white"/>
<path d="M11.5986 38.0703H11.6443C11.6575 38.0703 11.6677 38.0734 11.675 38.0794C11.682 38.0857 11.6858 38.0942 11.6858 38.1052C11.6858 38.1164 11.682 38.1249 11.675 38.1309C11.6677 38.1371 11.6575 38.14 11.6443 38.14H11.626V38.1765H11.5986L11.5986 38.0703ZM11.626 38.0902V38.1201H11.641C11.6463 38.1201 11.6505 38.1191 11.6534 38.1168C11.6561 38.1141 11.6575 38.1101 11.6575 38.1052C11.6575 38.1002 11.6561 38.0967 11.6534 38.0944C11.6505 38.0917 11.6463 38.0902 11.641 38.0902L11.626 38.0902Z" fill="white"/>
<path d="M11.7663 38.116C11.7641 38.115 11.7619 38.1144 11.7599 38.1144C11.7577 38.114 11.7556 38.1136 11.7536 38.1136C11.7472 38.1136 11.7421 38.1158 11.7385 38.1199C11.7353 38.1237 11.7338 38.1292 11.7338 38.1366V38.1715H11.71V38.0953H11.7338V38.108C11.7369 38.1033 11.7403 38.0999 11.7441 38.0977C11.7482 38.0951 11.7532 38.0938 11.7591 38.0938H11.7615C11.7625 38.0938 11.7641 38.0941 11.7663 38.0945L11.7663 38.116Z" fill="white"/>
<path d="M11.8137 38.1112C11.8083 38.1112 11.8042 38.1132 11.801 38.1168C11.7982 38.1205 11.797 38.1261 11.797 38.1334C11.797 38.1409 11.7982 38.1467 11.801 38.1509C11.8042 38.1546 11.8083 38.1564 11.8137 38.1564C11.8189 38.1564 11.8228 38.1546 11.8256 38.1509C11.8288 38.1467 11.8304 38.1409 11.8304 38.1334C11.8304 38.1261 11.8288 38.1205 11.8256 38.1168C11.8228 38.1132 11.8189 38.1112 11.8137 38.1112ZM11.8137 38.0938C11.8268 38.0938 11.8371 38.0975 11.8446 38.1049C11.852 38.1118 11.8557 38.1213 11.8557 38.1334C11.8557 38.1461 11.852 38.156 11.8446 38.1628C11.8371 38.1697 11.8268 38.1731 11.8137 38.1731C11.8004 38.1731 11.7901 38.1697 11.7828 38.1628C11.7758 38.156 11.7725 38.1461 11.7725 38.1334C11.7725 38.1213 11.7758 38.1118 11.7828 38.1049C11.7901 38.0975 11.8004 38.0938 11.8137 38.0938Z" fill="white"/>
<path d="M11.8822 38.0941H11.9078V38.1743C11.9078 38.1856 11.9052 38.1942 11.9001 38.1999C11.895 38.2055 11.8873 38.2085 11.8771 38.2085H11.8643V38.1914H11.8685C11.8736 38.1914 11.8771 38.1901 11.8788 38.188C11.8809 38.1856 11.8822 38.1811 11.8822 38.1743L11.8822 38.0941ZM11.8822 38.0625H11.9078V38.0838H11.8822V38.0625Z" fill="white"/>
<path d="M12.0086 38.1334V38.1405H11.9523C11.9527 38.1459 11.9547 38.1501 11.9579 38.1532C11.9614 38.156 11.9666 38.1572 11.9729 38.1572C11.9781 38.1572 11.9835 38.1564 11.9888 38.1548C11.994 38.1532 11.9995 38.1513 12.0055 38.1485V38.1667C11.9995 38.1689 11.9938 38.1705 11.988 38.1715C11.9821 38.1725 11.9763 38.1731 11.9706 38.1731C11.9567 38.1731 11.9462 38.1697 11.9388 38.1628C11.9313 38.156 11.9277 38.1461 11.9277 38.1334C11.9277 38.1213 11.9313 38.1118 11.9388 38.1049C11.9462 38.0975 11.9565 38.0938 11.9698 38.0938C11.9813 38.0938 11.9906 38.0975 11.9975 38.1049C12.0049 38.1118 12.0086 38.1213 12.0086 38.1334L12.0086 38.1334ZM11.984 38.1255C11.984 38.1207 11.9827 38.1171 11.9801 38.1144C11.9773 38.1112 11.9737 38.1096 11.969 38.1096C11.9646 38.1096 11.961 38.111 11.9579 38.1136C11.9547 38.1164 11.9527 38.1203 11.9523 38.1255L11.984 38.1255Z" fill="white"/>
<path d="M12.093 38.0977V38.1175C12.0898 38.1156 12.0862 38.114 12.0827 38.1128C12.0795 38.1118 12.0759 38.1112 12.0724 38.1112C12.066 38.1112 12.0607 38.1134 12.0565 38.1175C12.0527 38.1213 12.051 38.1267 12.051 38.1334C12.051 38.1409 12.0527 38.1467 12.0565 38.1509C12.0607 38.1546 12.066 38.1564 12.0724 38.1564C12.0765 38.1564 12.0803 38.156 12.0835 38.1548C12.087 38.1532 12.0902 38.1514 12.093 38.1493V38.1691C12.0892 38.1707 12.0853 38.1717 12.0811 38.1723C12.0773 38.1727 12.0736 38.1731 12.07 38.1731C12.0561 38.1731 12.0454 38.1697 12.0375 38.1628C12.0299 38.156 12.0264 38.1461 12.0264 38.1334C12.0264 38.1213 12.0299 38.1118 12.0375 38.1049C12.0454 38.0975 12.0561 38.0938 12.07 38.0938C12.0736 38.0938 12.0773 38.0943 12.0811 38.0953C12.0853 38.0959 12.0892 38.0967 12.093 38.0977H12.093Z" fill="white"/>
<path d="M12.1443 38.0703V38.0925H12.1707V38.1106H12.1443V38.1444C12.1443 38.1477 12.1447 38.1502 12.146 38.1518C12.1476 38.153 12.1505 38.1535 12.155 38.1535H12.1682V38.1716H12.1468C12.1369 38.1716 12.1297 38.1697 12.1254 38.1658C12.1215 38.1615 12.1196 38.1543 12.1196 38.1444V38.1106H12.1064V38.0925H12.1196V38.0703L12.1443 38.0703Z" fill="white"/>
</svg>
