<svg width="25" height="25" viewBox="0 0 25 25" fill="none" xmlns="http://www.w3.org/2000/svg">
<path d="M25 4.47868C24.0641 4.89372 23.1242 5.20703 22.0825 5.31283C23.1242 4.6862 23.9583 3.64453 24.3734 2.49707C23.3317 3.1237 22.29 3.53874 21.1466 3.75033C20.105 2.70866 18.75 2.08203 17.2933 2.08203C14.4775 2.08203 12.1867 4.37288 12.1867 7.18457C12.1867 7.60368 12.1867 8.01872 12.2925 8.33203C8.02002 8.12451 4.27246 6.1429 1.77002 3.0179C1.24919 3.75033 1.04167 4.6862 1.04167 5.62207C1.04167 7.39616 1.97754 8.95866 3.33252 9.89453C2.49837 9.78874 1.66829 9.58122 1.04167 9.2679C1.04167 9.2679 1.04167 9.2679 1.04167 9.3737C1.04167 11.8721 2.81169 13.9554 5.10254 14.3745C4.6875 14.4762 4.27246 14.582 3.75163 14.582C3.43831 14.582 3.125 14.582 2.81169 14.4762C3.43831 16.5596 5.31413 18.0203 7.60498 18.0203C5.83496 19.3753 3.64583 20.2054 1.24919 20.2054C0.834147 20.2054 0.41504 20.2054 0 20.1037C2.29085 21.5604 5.00081 22.3945 7.8125 22.3945C17.2933 22.3945 22.3958 14.582 22.3958 7.8112C22.3958 7.60368 22.3958 7.39616 22.3958 7.18457C23.4375 6.45622 24.2716 5.52034 25 4.47868Z" fill="white"/>
</svg>
