<?xml version="1.0" standalone="no"?>
<!DOCTYPE svg PUBLIC "-//W3C//DTD SVG 20010904//EN"
 "http://www.w3.org/TR/2001/REC-SVG-20010904/DTD/svg10.dtd">
<svg version="1.0" xmlns="http://www.w3.org/2000/svg"
 width="64.000000pt" height="64.000000pt" viewBox="0 0 64.000000 64.000000"
 preserveAspectRatio="xMidYMid meet">

<g transform="translate(0.000000,64.000000) scale(0.100000,-0.100000)"
fill="#000000" stroke="none">
<path d="M223 622 c-109 -39 -178 -112 -210 -221 -20 -69 -13 -143 20 -214 91
-199 356 -246 511 -91 123 123 123 323 1 448 -81 82 -218 115 -322 78z m162
-107 c37 -37 37 -96 -1 -135 -48 -49 -148 -19 -154 45 -7 73 25 115 90 115 30
0 47 -6 65 -25z m22 -240 c60 -18 103 -49 103 -75 0 -10 -14 -30 -31 -44 -96
-81 -206 -85 -301 -13 -71 55 -58 93 44 128 65 22 119 24 185 4z"/>
</g>
</svg>
