<svg width="25" height="25" viewBox="0 0 25 25" fill="none" xmlns="http://www.w3.org/2000/svg">
<path d="M23.7241 6.64199C23.454 5.63791 22.6624 4.84641 21.6584 4.57604C19.8244 4.07422 12.488 4.07422 12.488 4.07422C12.488 4.07422 5.1519 4.07422 3.31784 4.55702C2.33322 4.8271 1.52227 5.63805 1.25219 6.64199C0.769531 8.4759 0.769531 12.2792 0.769531 12.2792C0.769531 12.2792 0.769531 16.1017 1.25219 17.9164C1.52255 18.9204 2.31391 19.7119 3.31799 19.9822C5.17122 20.4842 12.4883 20.4842 12.4883 20.4842C12.4883 20.4842 19.8244 20.4842 21.6584 20.0014C22.6625 19.7312 23.454 18.9397 23.7244 17.9357C24.2069 16.1017 24.2069 12.2985 24.2069 12.2985C24.2069 12.2985 24.2262 8.4759 23.7241 6.64199ZM10.1523 15.7928V8.76558L16.2528 12.2792L10.1523 15.7928Z" fill="#464646"/>
</svg>
